<svg width="125" height="116" viewBox="0 0 125 116" fill="none" xmlns="http://www.w3.org/2000/svg">
<rect width="139.788" height="21.8104" transform="matrix(0.798855 -0.601524 -0.601524 -0.798855 13.1195 101.509)" fill="#8F6060" fill-opacity="0.06"/>
<path d="M12.4894 44.3822C20.5303 3.95641 56.7141 18.2846 65.2016 44.3822C78.1563 7.53846 113 13.6791 113 44.3822C113 72.015 98.7052 87.8783 65.2016 115.511C31.2514 89.4134 8.31633 65.3627 12.4894 44.3822Z" fill="#752222"/>
<path d="M12.4894 44.3822C20.5303 3.95641 56.7141 18.2846 65.2016 44.3822C78.1563 7.53846 113 13.6791 113 44.3822C113 72.015 98.7052 87.8783 65.2016 115.511C31.2514 89.4134 8.31633 65.3627 12.4894 44.3822Z" stroke="#752222"/>
<path d="M104.961 56.1353C100.242 80.9569 78.3722 98.3514 68.0272 103.946C62.6287 105.858 63.4413 100.553 67.6944 99.4385C91.2553 84.5058 99.2609 63.7546 100.319 55.2456C102.104 50.0684 105.665 52.4306 104.961 56.1353Z" fill="#8F6060"/>
<ellipse cx="105.375" cy="43.398" rx="2.6327" ry="3.08611" fill="#8F6060"/>
</svg>
