<svg width="497" height="542" viewBox="0 0 497 542" fill="none" xmlns="http://www.w3.org/2000/svg">
<path d="M396.311 109.732C369.765 88.3939 338.145 71.8988 325.311 66.7321L208 483.5L270.811 490.732C479.811 453.732 500.811 193.732 396.311 109.732Z" fill="#DECB22"/>
<path d="M407.303 333.135C366.421 440.893 261.532 496.022 175.336 462.128C89.1389 428.234 47.8835 315.639 88.7658 207.881C129.648 100.124 234.537 44.9945 320.733 78.8885C406.93 112.782 448.185 225.378 407.303 333.135Z" fill="#CDBC21" stroke="#B6A61B" stroke-width="25"/>
<path d="M168.532 320.242C147.771 293.241 169.822 244.102 183.442 222.907L151.263 210.283C168.359 170.06 201.353 163.937 235.102 177.176C283.173 164.607 309.811 193.389 317.12 209.351C373.565 233.588 368.465 274.362 358.859 291.72L326.68 279.096C309.003 341.72 284.691 358.301 274.744 358.764C276.733 376.305 269.45 382.178 265.559 382.921C259.223 386.302 250.409 374.534 246.794 368.227C227.806 371.673 198.331 353.755 185.967 344.366C169.852 346.424 164.011 345.18 157.64 340.586C152.544 336.911 162.778 325.492 168.532 320.242Z" fill="#DCC882" fill-opacity="0.6" stroke="#E5D757" stroke-width="11"/>
<path d="M294.022 245.704L228.809 220.123L228.515 216.647L225.625 224.25L227.03 224.801L292.243 250.383L293.649 250.934L296.539 243.332L294.022 245.704Z" fill="#E5D757"/>
<path d="M290.464 255.061L225.252 229.479L222.734 231.852L225.625 224.25L227.03 224.801L292.243 250.383L293.649 250.934L290.758 258.537L290.464 255.061Z" fill="#E5D757"/>
<path d="M236.522 310.552L264.787 236.212L267.912 235.596L261.371 233.031L260.762 234.633L232.497 308.974L231.888 310.576L238.429 313.142L236.522 310.552Z" fill="#E5D757"/>
<path d="M228.472 307.395L256.737 233.054L254.83 230.465L261.371 233.031L260.762 234.633L232.497 308.974L231.888 310.576L225.347 308.01L228.472 307.395Z" fill="#E5D757"/>
<mask id="mask0" mask-type="alpha" maskUnits="userSpaceOnUse" x="61" y="57" width="398" height="435">
<path fill-rule="evenodd" clip-rule="evenodd" d="M325.825 67.4074L325.691 67.8808L325.681 67.8766C231.294 30.7623 120.245 91.6989 77.6461 203.982C35.0468 316.266 77.0286 437.376 171.415 474.491C183.577 479.273 196.015 482.427 208.548 484.053L208.513 484.175L271.325 491.407C480.325 454.407 501.325 194.407 396.825 110.407C370.279 89.0691 338.658 72.5741 325.825 67.4074Z" fill="#E5D757"/>
</mask>
<g mask="url(#mask0)">
<rect x="-37" y="301.199" width="524" height="62" transform="rotate(-36.9791 -37 301.199)" fill="#E5E0E0" fill-opacity="0.41"/>
</g>
<path d="M418 208.238C408.746 205.861 404.428 189.089 403.194 181C400.973 198.036 394.403 208.238 387 208.238C398.104 213.686 401.498 227.387 403.194 233C403.194 226.265 411.06 211.21 418 208.238Z" fill="white"/>
<path d="M441 139.524C427.269 136.598 420.861 115.956 419.03 106C415.734 126.968 405.985 139.524 395 139.524C411.478 146.229 416.512 163.092 419.03 170C419.03 161.71 430.701 143.181 441 139.524Z" fill="white"/>
</svg>
