<svg width="143" height="162" viewBox="0 0 143 162" fill="none" xmlns="http://www.w3.org/2000/svg">
<rect width="142.349" height="21.8104" transform="matrix(1 0 4.83543e-08 -1 0 93.8104)" fill="#F4FBEF" fill-opacity="0.02"/>
<rect width="161.664" height="21.8104" transform="matrix(-4.37114e-08 -1 -1 -4.11855e-09 84.8104 161.664)" fill="#F4FBEF" fill-opacity="0.02"/>
<path d="M25.4458 69.3028C32.7701 35.3742 65.7297 47.3995 73.4609 69.3028C85.2612 38.3805 117 43.5342 117 69.3028C117 92.4945 103.979 105.808 73.4609 129C42.5359 107.097 21.6446 86.9113 25.4458 69.3028Z" fill="#8CCC65"/>
<path d="M25.4458 69.3028C32.7701 35.3742 65.7297 47.3995 73.4609 69.3028C85.2612 38.3805 117 43.5342 117 69.3028C117 92.4945 103.979 105.808 73.4609 129C42.5359 107.097 21.6446 86.9113 25.4458 69.3028Z" stroke="#752222"/>
<path d="M110.761 75.0437C106.462 96.017 86.5415 110.715 77.1182 115.442C72.2008 117.057 72.941 112.575 76.8151 111.633C98.2765 99.0157 105.569 81.4817 106.532 74.2919C108.159 69.9174 111.402 71.9134 110.761 75.0437Z" fill="#C0FC9B"/>
<ellipse cx="109" cy="65.5" rx="3" ry="2.5" fill="#C0FC9B"/>
</svg>
