<svg width="143" height="162" viewBox="0 0 143 162" fill="none" xmlns="http://www.w3.org/2000/svg">
<rect width="142.349" height="21.8104" transform="matrix(1 0 4.83543e-08 -1 0 93.8104)" fill="#E3FBDD" fill-opacity="0.06"/>
<rect width="161.664" height="21.8104" transform="matrix(-4.37114e-08 -1 -1 -4.11855e-09 84.8104 161.664)" fill="#E3FBDD" fill-opacity="0.06"/>
<path d="M15.5233 58.3028C24.1215 24.3742 62.8131 36.3995 71.8889 58.3028C85.7414 27.3805 123 32.5342 123 58.3028C123 81.4945 107.714 94.8083 71.8889 118C35.5857 96.0967 11.061 75.9113 15.5233 58.3028Z" fill="#21ECD3"/>
<path d="M15.5233 58.3028C24.1215 24.3742 62.8131 36.3995 71.8889 58.3028C85.7414 27.3805 123 32.5342 123 58.3028C123 81.4945 107.714 94.8083 71.8889 118C35.5857 96.0967 11.061 75.9113 15.5233 58.3028Z" stroke="#752222"/>
<path d="M115.675 64.0437C110.63 85.017 87.2444 99.7146 76.1823 104.442C70.4097 106.057 71.2786 101.575 75.8265 100.633C101.02 88.0157 109.581 70.4817 110.712 63.2919C112.621 58.9174 116.429 60.9134 115.675 64.0437Z" fill="#9BFCDF"/>
<ellipse cx="114" cy="54.5" rx="3" ry="2.5" fill="#9BFCDF"/>
</svg>
