<svg width="143" height="162" viewBox="0 0 143 162" fill="none" xmlns="http://www.w3.org/2000/svg">
<rect width="142.349" height="21.8104" transform="matrix(1 0 4.83543e-08 -1 0 93.8104)" fill="#E8F1E1" fill-opacity="0.03"/>
<rect width="122" height="22" transform="matrix(-4.37114e-08 -1 -1 -4.11855e-09 85 162)" fill="#E8F1E1" fill-opacity="0.03"/>
<path d="M49.2229 24.8349C52.8851 5.98566 69.3648 12.6664 73.2305 24.8349C79.1306 7.65586 95 10.519 95 24.8349C95 37.7192 88.4895 45.1157 73.2305 58C57.768 45.8315 47.3223 34.6174 49.2229 24.8349Z" fill="#D11212"/>
<path d="M49.2229 24.8349C52.8851 5.98566 69.3648 12.6664 73.2305 24.8349C79.1306 7.65586 95 10.519 95 24.8349C95 37.7192 88.4895 45.1157 73.2305 58C57.768 45.8315 47.3223 34.6174 49.2229 24.8349Z" stroke="#752222"/>
<path d="M92.1516 32.1958C90.1894 42.5177 81.095 49.751 76.7931 52.0775C74.5482 52.8726 74.8861 50.6664 76.6547 50.2031C86.4523 43.9935 89.7814 35.3642 90.2213 31.8258C90.9637 29.673 92.4444 30.6553 92.1516 32.1958Z" fill="#EB8383"/>
<ellipse cx="91" cy="26.5" rx="1" ry="1.5" fill="#EB8383"/>
</svg>
