<svg width="161" height="162" viewBox="0 0 161 162" fill="none" xmlns="http://www.w3.org/2000/svg">
<path d="M19.6106 65.6117C29.6417 13.6716 74.7819 32.0808 85.3704 65.6117C101.532 18.2739 145 26.1635 145 65.6117C145 101.115 127.167 121.497 85.3704 157C43.0166 123.469 14.4045 92.568 19.6106 65.6117Z" fill="#F4600C"/>
<path d="M19.6106 65.6117C29.6417 13.6716 74.7819 32.0808 85.3704 65.6117C101.532 18.2739 145 26.1635 145 65.6117C145 101.115 127.167 121.497 85.3704 157C43.0166 123.469 14.4045 92.568 19.6106 65.6117Z" stroke="#752222"/>
<path d="M136.455 78.0139C130.568 109.609 103.285 131.75 90.3793 138.871C83.6446 141.305 84.6583 134.552 89.9641 133.134C119.357 114.126 129.344 87.7123 130.664 76.8813C132.891 70.2914 137.333 73.2982 136.455 78.0139Z" fill="#FCBB97"/>
<circle cx="132" cy="57" r="4" fill="#FCBB97"/>
</svg>
