<svg width="143" height="162" viewBox="0 0 143 162" fill="none" xmlns="http://www.w3.org/2000/svg">
<path d="M17.5427 62.8777C26.4593 18.4773 66.5839 34.2142 75.9959 62.8777C90.3615 22.4116 129 29.1559 129 62.8777C129 93.2274 113.148 110.65 75.9959 141C38.3481 112.336 12.9151 85.921 17.5427 62.8777Z" fill="#9533F6"/>
<path d="M17.5427 62.8777C26.4593 18.4773 66.5839 34.2142 75.9959 62.8777C90.3615 22.4116 129 29.1559 129 62.8777C129 93.2274 113.148 110.65 75.9959 141C38.3481 112.336 12.9151 85.921 17.5427 62.8777Z" stroke="#752222"/>
<path d="M121.404 73.4796C116.172 100.488 91.92 119.415 80.4483 125.503C74.4619 127.583 75.363 121.811 80.0793 120.598C106.206 104.35 115.084 81.7702 116.257 72.5115C118.237 66.8781 122.185 69.4485 121.404 73.4796Z" fill="#D697FC"/>
<ellipse cx="117.5" cy="56" rx="3.5" ry="3" fill="#D697FC"/>
</svg>
