<svg width="143" height="162" viewBox="0 0 143 162" fill="none" xmlns="http://www.w3.org/2000/svg">
<path d="M29.3877 58.2508C35.7566 25.9977 64.4171 37.4292 71.1399 58.2508C81.4011 28.8556 109 33.7548 109 58.2508C109 80.2973 97.6774 92.9536 71.1399 115C44.2486 94.1783 26.0822 74.9898 29.3877 58.2508Z" fill="#EC81E8"/>
<path d="M29.3877 58.2508C35.7566 25.9977 64.4171 37.4292 71.1399 58.2508C81.4011 28.8556 109 33.7548 109 58.2508C109 80.2973 97.6774 92.9536 71.1399 115C44.2486 94.1783 26.0822 74.9898 29.3877 58.2508Z" stroke="#752222"/>
<path d="M103.574 65.8491C99.8369 85.5098 82.5143 99.2876 74.3202 103.719C70.0442 105.233 70.6878 101.031 74.0566 100.149C92.7186 88.3208 99.0598 71.8842 99.8976 65.1444C101.312 61.0436 104.132 62.9147 103.574 65.8491Z" fill="#FDC3F7"/>
<circle cx="101.5" cy="55.5" r="2.5" fill="#FDC3F7"/>
</svg>
