<svg width="143" height="162" viewBox="0 0 143 162" fill="none" xmlns="http://www.w3.org/2000/svg">
<path d="M43.3004 40.7798C48.2364 15.6475 70.4483 24.5552 75.6584 40.7798C83.6108 17.8745 105 21.692 105 40.7798C105 57.9589 96.225 67.821 75.6584 85C54.8177 68.7753 40.7387 53.8232 43.3004 40.7798Z" fill="#EFC167"/>
<path d="M43.3004 40.7798C48.2364 15.6475 70.4483 24.5552 75.6584 40.7798C83.6108 17.8745 105 21.692 105 40.7798C105 57.9589 96.225 67.821 75.6584 85C54.8177 68.7753 40.7387 53.8232 43.3004 40.7798Z" stroke="#752222"/>
<path d="M100.795 46.9081C97.8986 62.1451 84.4736 72.8229 78.1232 76.2571C74.8093 77.4308 75.3081 74.1742 77.9189 73.4902C92.382 64.3236 97.2964 51.5852 97.9457 46.3619C99.0417 43.1838 101.227 44.6339 100.795 46.9081Z" fill="#F8E0B4"/>
<circle cx="99" cy="39" r="2" fill="#F8E0B4"/>
</svg>
