<svg width="142" height="159" viewBox="0 0 142 159" fill="none" xmlns="http://www.w3.org/2000/svg">
<rect width="142" height="21" transform="matrix(1 0 4.83543e-08 -1 0 91)" fill="#E8F1E1" fill-opacity="0.03"/>
<rect width="159" height="22" transform="matrix(-4.37114e-08 -1 -1 -4.11855e-09 85 159)" fill="#E8F1E1" fill-opacity="0.03"/>
<path d="M72.2364 53.3749C69.9859 47.7828 65.1374 43.5194 60.2318 42.7099C57.5701 42.2707 54.8922 42.8525 52.6483 44.7935C50.4158 46.7248 48.6608 49.9593 47.7321 54.7395L48.2229 54.8349L47.7321 54.7395C46.7403 59.8445 48.9837 65.243 53.3206 70.8293C57.6654 76.4258 64.1811 82.3016 71.9212 88.3929C72.1077 88.5397 72.3717 88.5351 72.553 88.382C80.1814 81.9408 85.6709 76.8334 89.2475 71.7034C92.8412 66.549 94.5 61.3789 94.5 54.8349C94.5 47.4933 90.4022 42.9089 85.3657 42.5257C80.6042 42.1635 75.32 45.5828 72.2364 53.3749Z" fill="#F6D0D0" stroke="#752222" stroke-linecap="round" stroke-linejoin="round"/>
<path d="M91.1516 62.0021C89.1894 72.2598 80.095 79.4482 75.7931 81.7602C73.5482 82.5504 73.8861 80.358 75.6547 79.8975C85.4523 73.7264 88.7814 65.1508 89.2213 61.6344C89.9637 59.4949 91.4444 60.4711 91.1516 62.0021Z" fill="#FFFCFC"/>
<ellipse cx="90" cy="56.5" rx="1" ry="1.5" fill="#FFFCFC"/>
</svg>
