<svg width="226" height="221" viewBox="0 0 226 221" fill="none" xmlns="http://www.w3.org/2000/svg">
<path fill-rule="evenodd" clip-rule="evenodd" d="M195.173 20.1899C198.77 29.2778 198.695 50.18 169.613 61.0854C178.859 67.6345 197.511 65.2998 210.683 63.6511C216.932 62.8689 221.948 62.2411 224.141 62.7894C228.352 63.8423 222.161 65.8019 217.962 67.1314L217.96 67.1321C217.742 67.2009 217.53 67.2681 217.325 67.3334C212.591 71.3093 202.557 79.2612 200.285 79.2612C199.871 79.2612 199.324 79.2854 198.668 79.3144C194.83 79.4839 187.28 79.8173 180.973 76.4213C175.066 73.2405 181.162 80.7759 184.949 84.9412C197.824 86.6452 223.459 90.7347 223.005 93.4611C222.886 94.1741 223.09 95.0362 223.321 96.0111C224.195 99.6961 225.45 104.992 211.077 109.933C206.533 106.904 196.65 100.504 193.469 99.141C192.088 98.549 182.822 90.7583 171.246 80.747C194.425 109.874 212.959 156.656 167.909 183.204C96.342 225.378 31.5908 220.692 31.5908 220.692C-11.5775 203.652 -4.7611 183.204 17.9586 122.997C18.685 121.072 19.4347 117.458 20.4116 112.75C27.2124 79.9747 45.0203 -5.84886 142.592 55.6367C129.64 44.1603 119.144 34.6888 118.494 33.8217C118.34 33.6168 118.006 33.19 117.531 32.5834C112.745 26.4659 93.6514 2.0653 100.886 2.58205C107.247 3.03645 119.819 22.4618 125.31 32.1177C128.339 18.4859 137.692 -6.50584 150.869 2.58205C134.966 25.3018 131.444 30.8681 142.349 39.5016C140.645 28.1418 152.46 0.878055 156.549 5.42201C156.409 6.149 156.235 7.00594 156.043 7.94949L156.043 7.95094C154.689 14.6252 152.457 25.6309 154.845 25.6309C154.277 27.5242 154.845 28.5962 154.845 28.1418C154.845 28.0669 154.869 28.3965 154.914 29.029L154.914 29.0295C155.211 33.1979 156.446 50.5181 158.078 51.9975C161.968 36.017 174.129 9.66793 195.173 20.1899Z" fill="#A09F9F"/>
</svg>
