<svg width="274" height="148" viewBox="0 0 274 148" fill="none" xmlns="http://www.w3.org/2000/svg">
<path d="M9.01424 90.2627C8.67405 91.1958 8.5 92.1813 8.5 93.1744C8.5 95.6715 8.87772 98.3513 10.1024 100.856C11.4117 103.533 13.4527 105.519 15.903 106.766C20.076 108.889 24.8356 108.472 27.2173 108.262C28.2632 108.17 29.1647 108.075 29.9754 107.99C31.7623 107.801 33.1072 107.66 34.5819 107.696C36.4466 107.742 36.8999 108.11 36.9657 108.164C70.6101 135.967 120.512 143.292 164.436 137.802C186.555 135.037 207.693 128.972 225.153 120.198C242.483 111.491 256.953 99.7203 264.544 85.101C265.872 82.5422 265.813 79.4843 264.387 76.9787C232.593 21.1322 179.569 4.03506 131.484 9.45529C85.7564 14.6098 42.5889 40.4238 26.307 74.4146C20.2154 76.747 15.9832 79.1585 13.1851 82.1506C9.81147 85.758 8.69781 91.1306 9.01424 90.2627Z" fill="#9FA0A0" stroke="#9FA0A0" stroke-width="17" stroke-linecap="round" stroke-linejoin="round"/>
</svg>
