<svg width="222" height="275" viewBox="0 0 222 275" fill="none" xmlns="http://www.w3.org/2000/svg">
<path fill-rule="evenodd" clip-rule="evenodd" d="M188.584 20.3271C122.775 -14.645 59.0374 5.6423 34.8382 20.5663L34.4637 20.7973L34.1188 21.0705C4.30612 44.6806 -2.14475 73.914 2.24337 100.417C6.14569 123.986 18.5312 145.273 29.8107 159.111C6.83449 206.634 30.6371 248.775 45.9628 264.381L47.3813 265.826L49.3339 266.36C99.8625 280.191 155.297 272.146 176.964 266.373L179.206 265.776L180.719 264.017C217.299 221.49 206.709 178.631 194.172 158.156C218.233 123.075 223.821 93.2549 219.814 69.6655C215.677 45.3076 201.469 28.6526 189.146 20.6581L188.872 20.4803L188.584 20.3271Z" fill="#A09F9F"/>
<path d="M34.8382 20.5663L35.1006 20.9919L35.1006 20.9919L34.8382 20.5663ZM188.584 20.3271L188.818 19.8856L188.818 19.8856L188.584 20.3271ZM34.4637 20.7973L34.2012 20.3717L34.1762 20.3871L34.1533 20.4053L34.4637 20.7973ZM34.1188 21.0705L34.4292 21.4624L34.4292 21.4624L34.1188 21.0705ZM2.24337 100.417L2.73666 100.335L2.73666 100.335L2.24337 100.417ZM29.8107 159.111L30.2608 159.329L30.3994 159.042L30.1982 158.795L29.8107 159.111ZM45.9628 264.381L45.6061 264.732L45.6061 264.732L45.9628 264.381ZM47.3813 265.826L47.0246 266.176L47.1191 266.272L47.2493 266.308L47.3813 265.826ZM49.3339 266.36L49.2019 266.842L49.2019 266.842L49.3339 266.36ZM176.964 266.373L176.835 265.89L176.835 265.89L176.964 266.373ZM179.206 265.776L179.334 266.259L179.484 266.219L179.585 266.102L179.206 265.776ZM180.719 264.017L180.34 263.691L180.34 263.691L180.719 264.017ZM194.172 158.156L193.76 157.873L193.576 158.141L193.745 158.417L194.172 158.156ZM219.814 69.6655L219.321 69.7492L219.321 69.7492L219.814 69.6655ZM189.146 20.6581L188.874 21.0775L188.874 21.0775L189.146 20.6581ZM188.872 20.4803L189.144 20.0609L189.126 20.049L189.107 20.0388L188.872 20.4803ZM35.1006 20.9919C59.1915 6.13472 122.737 -14.099 188.349 20.7686L188.818 19.8856C122.813 -15.191 58.8833 5.14989 34.5757 20.1408L35.1006 20.9919ZM34.7261 21.2229L35.1006 20.9919L34.5757 20.1408L34.2012 20.3717L34.7261 21.2229ZM34.4292 21.4624L34.7741 21.1893L34.1533 20.4053L33.8083 20.6785L34.4292 21.4624ZM2.73666 100.335C-1.62553 73.9889 4.77631 44.9461 34.4292 21.4624L33.8083 20.6785C3.83592 44.4152 -2.66396 73.839 1.75009 100.499L2.73666 100.335ZM30.1982 158.795C18.9554 145.002 6.62064 123.793 2.73666 100.335L1.75009 100.499C5.67074 124.178 18.107 145.544 29.4231 159.427L30.1982 158.795ZM46.3196 264.031C31.0796 248.512 7.40995 206.593 30.2608 159.329L29.3605 158.893C6.25904 206.676 30.1947 249.038 45.6061 264.732L46.3196 264.031ZM47.7381 265.475L46.3196 264.031L45.6061 264.732L47.0246 266.176L47.7381 265.475ZM49.4659 265.878L47.5133 265.343L47.2493 266.308L49.2019 266.842L49.4659 265.878ZM176.835 265.89C155.22 271.649 99.8805 279.677 49.4659 265.878L49.2019 266.842C99.8445 280.704 155.375 272.643 177.092 266.857L176.835 265.89ZM179.077 265.293L176.835 265.89L177.092 266.857L179.334 266.259L179.077 265.293ZM180.34 263.691L178.827 265.45L179.585 266.102L181.098 264.343L180.34 263.691ZM193.745 158.417C206.197 178.752 216.747 221.365 180.34 263.691L181.098 264.343C217.852 221.615 207.221 178.511 194.598 157.895L193.745 158.417ZM219.321 69.7492C223.302 93.1827 217.765 122.874 193.76 157.873L194.584 158.439C218.701 123.277 224.341 93.3272 220.307 69.5818L219.321 69.7492ZM188.874 21.0775C201.091 29.0031 215.209 45.5417 219.321 69.7492L220.307 69.5818C216.144 45.0735 201.847 28.3021 189.418 20.2386L188.874 21.0775ZM188.6 20.8998L188.874 21.0775L189.418 20.2386L189.144 20.0609L188.6 20.8998ZM188.349 20.7686L188.637 20.9219L189.107 20.0388L188.818 19.8856L188.349 20.7686Z" fill="#A09F9F"/>
</svg>
