<svg width="213" height="183" viewBox="0 0 213 183" fill="none" xmlns="http://www.w3.org/2000/svg">
<path d="M9.0654 53.9515L15.8916 55.5016L9.0654 53.9515C4.46715 74.2002 15.0881 94.5077 32.6781 113.893C50.4923 133.525 76.9775 153.911 108.012 174.807C110.446 176.445 113.643 176.392 116.021 174.674C146.499 152.657 168.983 134.826 183.776 116.673C198.874 98.146 206 79.2516 206 55.5016C206 27.4525 187.402 9.57112 164.766 8.09795C145.652 6.85398 125.266 17.3006 111.803 39.9229C100.923 23.3448 82.8807 11.3479 64.58 8.7643C52.9464 7.12194 40.9277 9.2637 30.7376 16.8053C20.577 24.3251 12.9953 36.646 9.0654 53.9515Z" fill="#9FA0A0" stroke="#9FA0A0" stroke-width="14" stroke-linecap="round" stroke-linejoin="round"/>
</svg>
