<svg width="395" height="197" viewBox="0 0 395 197" fill="none" xmlns="http://www.w3.org/2000/svg">
<path fill-rule="evenodd" clip-rule="evenodd" d="M198.915 18.2278L208.539 47.168L239.05 46.9614L214.487 65.0541L224.111 93.9944L199.306 76.236L174.743 94.3288L183.976 65.2608L159.17 47.5024L189.682 47.2958L198.915 18.2278ZM270.091 86.4918C268.224 74.7767 266.555 64.3052 273.603 60.3129C285.289 52.5379 297.034 54.4458 314.043 57.2089C331.539 60.0511 354.604 63.7981 388.907 58.8429C389.505 65.1789 381.871 71.0993 374.574 75.0913C375.2 74.9684 375.797 74.8466 376.361 74.727C376.631 74.6697 376.897 74.8422 376.954 75.1123C377.011 75.3825 376.839 75.6479 376.569 75.7052C375.16 76.0039 373.553 76.3153 371.784 76.6251C370.404 81.8888 365.808 92.2875 357.878 94.5481C366.703 93.8281 374.713 92.5405 379.941 91.4315C380.211 91.3742 380.476 91.5468 380.533 91.8169C380.591 92.087 380.418 92.3525 380.148 92.4098C374.545 93.5982 365.789 94.9873 356.247 95.6765C353.786 101.639 346.368 112.199 333.575 112.584C333.547 112.643 333.519 112.704 333.49 112.765C336.393 112.953 339.385 112.932 342.341 112.763C350.589 112.293 358.473 110.679 363.203 109.337C363.469 109.262 363.745 109.416 363.821 109.682C363.896 109.948 363.742 110.224 363.476 110.299C358.685 111.659 350.728 113.287 342.398 113.762C339.277 113.94 336.091 113.957 332.994 113.733C330.544 118.198 324.623 125.099 315.529 126.55C319.861 127.247 324.582 127.346 329.216 127.081C337.464 126.611 345.348 124.997 350.078 123.656C350.344 123.58 350.62 123.734 350.696 124C350.771 124.266 350.617 124.542 350.351 124.618C345.56 125.977 337.603 127.605 329.273 128.08C323.364 128.417 317.225 128.177 311.886 126.822C311.735 126.821 311.583 126.819 311.431 126.814C311.387 133.024 302.205 143.723 265.823 136.845L254.285 129.105C275.847 122.613 272.765 103.276 270.091 86.4918ZM124.849 87.3854C126.716 75.6703 128.384 65.1988 121.337 61.2065C109.65 53.4315 97.9058 55.3394 80.8968 58.1025C63.4011 60.9447 40.3353 64.6917 6.03301 59.7365C5.43498 66.0725 13.0682 71.9929 20.3659 75.9849C19.7393 75.862 19.1427 75.7402 18.5785 75.6205C18.3084 75.5632 18.043 75.7358 17.9857 76.0059C17.9284 76.276 18.1009 76.5415 18.371 76.5988C19.7793 76.8975 21.3869 77.2089 23.1561 77.5187C24.5354 82.7824 29.132 93.1811 37.0614 95.4416C28.2365 94.7216 20.2268 93.434 14.999 92.3251C14.7289 92.2678 14.4634 92.4403 14.4061 92.7105C14.3488 92.9806 14.5213 93.246 14.7915 93.3033C20.3943 94.4918 29.151 95.8809 38.6927 96.5701C41.1537 102.533 48.5721 113.093 61.3649 113.477C61.3924 113.537 61.4206 113.597 61.4496 113.658C58.5462 113.846 55.5544 113.825 52.5984 113.657C44.3509 113.186 36.4666 111.573 31.7362 110.231C31.4706 110.156 31.1941 110.31 31.1188 110.576C31.0434 110.841 31.1977 111.118 31.4633 111.193C36.255 112.552 44.212 114.18 52.5415 114.655C55.6627 114.833 58.8482 114.85 61.946 114.627C64.3957 119.092 70.3164 125.993 79.4104 127.443C75.0791 128.141 70.3572 128.239 65.7235 127.975C57.4759 127.505 49.5916 125.891 44.8613 124.549C44.5956 124.474 44.3191 124.628 44.2438 124.894C44.1684 125.159 44.3227 125.436 44.5883 125.511C49.38 126.87 57.337 128.498 65.6665 128.973C71.5754 129.31 77.7145 129.07 83.0536 127.716C83.2047 127.715 83.3565 127.712 83.509 127.708C83.5524 133.917 92.7349 144.617 129.117 137.738L140.654 129.999C119.093 123.506 122.174 104.169 124.849 87.3854ZM150.223 130.843C157.822 97.3573 192.019 109.226 200.041 130.843C212.284 100.324 245.215 105.411 245.215 130.843C245.215 153.732 231.705 166.872 200.041 189.762C167.955 168.144 146.279 148.222 150.223 130.843Z" fill="#A09F9F"/>
<path d="M208.539 47.168L203.32 48.9036L204.581 52.695L208.576 52.6679L208.539 47.168ZM198.915 18.2278L204.133 16.4922L198.794 0.43749L193.673 16.5628L198.915 18.2278ZM239.05 46.9614L242.312 51.3897L255.946 41.3468L239.013 41.4615L239.05 46.9614ZM214.487 65.0541L211.225 60.6257L208.006 62.9965L209.268 66.7897L214.487 65.0541ZM224.111 93.9944L220.909 98.4665L234.671 108.318L229.33 92.2588L224.111 93.9944ZM199.306 76.236L202.508 71.764L199.26 69.4389L196.044 71.8077L199.306 76.236ZM174.743 94.3288L169.501 92.6638L164.377 108.795L178.005 98.7571L174.743 94.3288ZM183.976 65.2608L189.217 66.9258L190.428 63.1157L187.177 60.7887L183.976 65.2608ZM159.17 47.5024L159.133 42.0026L142.2 42.1173L155.969 51.9745L159.17 47.5024ZM189.682 47.2958L189.719 52.7956L193.714 52.7686L194.924 48.9608L189.682 47.2958ZM273.603 60.3129L276.314 65.0984L276.485 65.0013L276.649 64.8921L273.603 60.3129ZM270.091 86.4918L264.659 87.3573L264.659 87.3573L270.091 86.4918ZM314.043 57.2089L314.925 51.7801L314.925 51.7801L314.043 57.2089ZM388.907 58.8429L394.382 58.3261L393.839 52.5733L388.12 53.3994L388.907 58.8429ZM374.574 75.0913L371.934 70.2661L375.633 80.4884L374.574 75.0913ZM376.361 74.727L375.22 69.3467L375.22 69.3467L376.361 74.727ZM376.569 75.7052L375.427 70.3249L375.427 70.3249L376.569 75.7052ZM371.784 76.6251L370.835 71.2075L367.358 71.8163L366.463 75.231L371.784 76.6251ZM357.878 94.5481L356.37 89.2588L358.325 100.03L357.878 94.5481ZM379.941 91.4315L378.799 86.0512L378.799 86.0512L379.941 91.4315ZM380.533 91.8169L375.153 92.9578L375.153 92.9584L380.533 91.8169ZM380.148 92.4098L381.289 97.79L381.29 97.79L380.148 92.4098ZM356.247 95.6765L355.851 90.1908L352.46 90.4357L351.163 93.5781L356.247 95.6765ZM333.575 112.584L333.41 107.086L329.999 107.189L328.576 110.289L333.575 112.584ZM333.49 112.765L328.521 110.408L325.048 117.73L333.135 118.253L333.49 112.765ZM342.341 112.763L342.028 107.272L342.028 107.272L342.341 112.763ZM363.203 109.337L364.704 114.629L364.704 114.629L363.203 109.337ZM363.821 109.682L369.112 108.181L369.112 108.181L363.821 109.682ZM363.476 110.299L364.977 115.591L364.977 115.591L363.476 110.299ZM342.398 113.762L342.085 108.271L342.085 108.271L342.398 113.762ZM332.994 113.733L333.389 108.248L329.869 107.994L328.172 111.088L332.994 113.733ZM315.529 126.55L314.663 121.118L314.655 131.98L315.529 126.55ZM329.216 127.081L329.529 132.573L329.529 132.573L329.216 127.081ZM350.078 123.656L351.579 128.947L351.579 128.947L350.078 123.656ZM350.696 124L355.987 122.499L355.987 122.499L350.696 124ZM350.351 124.618L351.852 129.909L351.852 129.909L350.351 124.618ZM329.273 128.08L328.96 122.589L328.96 122.589L329.273 128.08ZM311.886 126.822L313.238 121.491L312.593 121.327L311.926 121.322L311.886 126.822ZM311.431 126.814L311.58 121.316L305.97 121.164L305.931 126.776L311.431 126.814ZM265.823 136.845L262.759 141.412L263.694 142.04L264.801 142.249L265.823 136.845ZM254.285 129.105L252.699 123.839L241.562 127.193L251.221 133.673L254.285 129.105ZM121.337 61.2065L118.29 65.7857L118.454 65.8948L118.626 65.992L121.337 61.2065ZM124.849 87.3854L130.28 88.2509L130.28 88.2509L124.849 87.3854ZM80.8968 58.1025L80.0148 52.6737L80.0148 52.6737L80.8968 58.1025ZM6.03301 59.7365L6.81936 54.293L1.10033 53.4669L0.557345 59.2197L6.03301 59.7365ZM20.3659 75.9849L19.3071 81.382L23.0054 71.1596L20.3659 75.9849ZM18.5785 75.6205L19.7198 70.2403L19.7198 70.2402L18.5785 75.6205ZM18.371 76.5988L19.5123 71.2185L19.5123 71.2185L18.371 76.5988ZM23.1561 77.5187L28.4765 76.1245L27.5817 72.7099L24.1047 72.1011L23.1561 77.5187ZM37.0614 95.4416L36.6142 100.923L38.5693 90.1524L37.0614 95.4416ZM14.999 92.3251L16.1403 86.9448L16.1402 86.9448L14.999 92.3251ZM14.7915 93.3033L13.6501 98.6836L13.6502 98.6836L14.7915 93.3033ZM38.6927 96.5701L43.7766 94.4717L42.4796 91.3293L39.0889 91.0844L38.6927 96.5701ZM61.3649 113.477L66.3632 111.182L64.9397 108.082L61.53 107.98L61.3649 113.477ZM61.4496 113.658L61.8049 119.147L69.8939 118.623L66.4184 111.3L61.4496 113.658ZM52.5984 113.657L52.9116 108.166L52.9116 108.166L52.5984 113.657ZM31.7362 110.231L30.2352 115.522L30.2352 115.522L31.7362 110.231ZM31.1188 110.576L36.41 112.077L36.41 112.076L31.1188 110.576ZM31.4633 111.193L29.9623 116.484L29.9623 116.484L31.4633 111.193ZM52.5415 114.655L52.8547 109.164L52.8547 109.164L52.5415 114.655ZM61.946 114.627L66.7679 111.981L65.0705 108.888L61.5507 109.141L61.946 114.627ZM79.4104 127.443L80.2849 132.873L80.2767 122.012L79.4104 127.443ZM65.7235 127.975L66.0366 122.484L65.7235 127.975ZM44.8613 124.549L43.3602 129.84L43.3603 129.84L44.8613 124.549ZM44.2438 124.894L49.535 126.395L49.535 126.395L44.2438 124.894ZM44.5883 125.511L43.0873 130.802L43.0873 130.802L44.5883 125.511ZM65.6665 128.973L65.9797 123.482L65.9797 123.482L65.6665 128.973ZM83.0536 127.716L83.0133 122.216L82.3471 122.221L81.7013 122.385L83.0536 127.716ZM83.509 127.708L89.0089 127.67L88.9696 122.058L83.3597 122.21L83.509 127.708ZM129.117 137.738L130.139 143.143L131.246 142.933L132.181 142.306L129.117 137.738ZM140.654 129.999L143.718 134.566L153.378 128.087L142.24 124.733L140.654 129.999ZM200.041 130.843L194.884 132.757L199.841 146.114L205.145 132.891L200.041 130.843ZM150.223 130.843L144.859 129.626L144.859 129.626L150.223 130.843ZM200.041 189.762L196.968 194.323L200.152 196.468L203.263 194.219L200.041 189.762ZM213.758 45.4325L204.133 16.4922L193.696 19.9634L203.32 48.9036L213.758 45.4325ZM239.013 41.4615L208.501 41.6682L208.576 52.6679L239.087 52.4613L239.013 41.4615ZM217.749 69.4825L242.312 51.3897L235.788 42.533L211.225 60.6257L217.749 69.4825ZM229.33 92.2588L219.706 63.3185L209.268 66.7897L218.892 95.73L229.33 92.2588ZM196.104 80.7081L220.909 98.4665L227.313 89.5223L202.508 71.764L196.104 80.7081ZM178.005 98.7571L202.568 80.6644L196.044 71.8077L171.481 89.9004L178.005 98.7571ZM178.734 63.5958L169.501 92.6638L179.985 95.9938L189.217 66.9258L178.734 63.5958ZM155.969 51.9745L180.774 69.7329L187.177 60.7887L162.372 43.0303L155.969 51.9745ZM189.644 41.7959L159.133 42.0026L159.208 53.0023L189.719 52.7956L189.644 41.7959ZM193.673 16.5628L184.44 45.6308L194.924 48.9608L204.156 19.8928L193.673 16.5628ZM270.892 55.5274C264.975 58.8791 263.282 64.8404 263.011 70.23C262.745 75.5089 263.756 81.6885 264.659 87.3573L275.522 85.6263C274.559 79.58 273.802 74.6663 273.997 70.7826C274.187 67.0096 275.183 65.739 276.314 65.0984L270.892 55.5274ZM314.925 51.7801C298.372 49.0911 284.337 46.5658 270.556 55.7337L276.649 64.8921C286.242 58.5101 295.696 59.8005 313.161 62.6378L314.925 51.7801ZM388.12 53.3994C354.659 58.2331 332.257 54.5956 314.925 51.7801L313.161 62.6378C330.821 65.5065 354.549 69.3631 389.693 64.2864L388.12 53.3994ZM377.213 79.9165C381.086 77.7983 385.333 75.0221 388.608 71.7173C391.762 68.5343 394.911 63.9321 394.382 58.3261L383.431 59.3597C383.5 60.0897 383.132 61.6157 380.794 63.9749C378.577 66.2123 375.36 68.3923 371.934 70.2661L377.213 79.9165ZM375.22 69.3467C374.685 69.4602 374.116 69.5764 373.515 69.6942L375.633 80.4884C376.285 80.3604 376.909 80.2331 377.502 80.1072L375.22 69.3467ZM382.334 73.9708C381.647 70.7297 378.462 68.659 375.22 69.3467L377.502 80.1073C374.801 80.6803 372.147 78.9547 371.574 76.2538L382.334 73.9708ZM377.71 81.0855C380.951 80.398 383.022 77.2129 382.334 73.9708L371.574 76.2538C371 73.5521 372.726 70.8978 375.427 70.3249L377.71 81.0855ZM372.732 82.0427C374.559 81.7228 376.231 81.3991 377.71 81.0855L375.427 70.3249C374.089 70.6087 372.546 70.9079 370.835 71.2075L372.732 82.0427ZM359.386 99.8373C365.191 98.1824 369.261 93.7485 371.892 89.7208C374.58 85.6056 376.29 81.125 377.104 78.0193L366.463 75.231C365.898 77.3889 364.62 80.7395 362.683 83.7047C360.688 86.7575 358.495 88.6531 356.37 89.2588L359.386 99.8373ZM378.799 86.0512C373.799 87.1119 366.021 88.3654 357.431 89.0663L358.325 100.03C367.385 99.2907 375.627 97.969 381.082 96.8118L378.799 86.0512ZM385.914 90.676C385.226 87.4338 382.041 85.3637 378.799 86.0512L381.082 96.8118C378.381 97.3847 375.726 95.6597 375.153 92.9578L385.914 90.676ZM381.29 97.79C384.531 97.1024 386.602 93.9173 385.914 90.6754L375.153 92.9584C374.58 90.2568 376.306 87.6025 379.007 87.0295L381.29 97.79ZM356.643 101.162C366.443 100.454 375.449 99.029 381.289 97.79L379.007 87.0295C373.642 88.1674 365.134 89.5203 355.851 90.1908L356.643 101.162ZM333.74 118.081C349.753 117.6 358.539 104.539 361.331 97.7749L351.163 93.5781C349.033 98.7396 342.983 106.799 333.41 107.086L333.74 118.081ZM338.459 115.122C338.497 115.042 338.535 114.96 338.573 114.878L328.576 110.289C328.559 110.326 328.541 110.366 328.521 110.408L338.459 115.122ZM342.028 107.272C339.251 107.431 336.486 107.447 333.845 107.276L333.135 118.253C336.301 118.458 339.52 118.433 342.654 118.254L342.028 107.272ZM361.702 104.046C357.309 105.292 349.825 106.828 342.028 107.272L342.654 118.254C351.353 117.758 359.637 116.066 364.704 114.629L361.702 104.046ZM369.112 108.181C368.208 104.993 364.89 103.142 361.702 104.046L364.704 114.629C362.048 115.382 359.283 113.839 358.53 111.183L369.112 108.181ZM364.977 115.591C368.165 114.686 370.016 111.369 369.112 108.181L358.53 111.183C357.776 108.526 359.319 105.762 361.975 105.008L364.977 115.591ZM342.711 119.253C351.492 118.752 359.848 117.046 364.977 115.591L361.975 105.008C357.521 106.272 349.963 107.821 342.085 108.271L342.711 119.253ZM332.598 119.219C335.978 119.463 339.405 119.441 342.711 119.253L342.085 108.271C339.149 108.438 336.205 108.45 333.389 108.248L332.598 119.219ZM316.395 131.981C327.806 130.161 334.92 121.657 337.815 116.379L328.172 111.088C326.168 114.74 321.441 120.037 314.663 121.118L316.395 131.981ZM328.903 121.59C324.53 121.84 320.228 121.736 316.404 121.12L314.655 131.98C319.494 132.759 324.635 132.852 329.529 132.573L328.903 121.59ZM348.577 118.364C344.184 119.611 336.7 121.146 328.903 121.59L329.529 132.573C338.228 132.076 346.512 130.384 351.579 128.947L348.577 118.364ZM355.987 122.499C355.083 119.311 351.765 117.46 348.577 118.364L351.579 128.947C348.923 129.7 346.158 128.158 345.405 125.501L355.987 122.499ZM351.852 129.909C355.04 129.004 356.891 125.687 355.987 122.499L345.405 125.501C344.651 122.844 346.194 120.08 348.85 119.326L351.852 129.909ZM329.586 133.571C338.367 133.07 346.723 131.364 351.852 129.909L348.85 119.326C344.396 120.59 336.838 122.139 328.96 122.589L329.586 133.571ZM310.534 132.153C316.624 133.698 323.38 133.925 329.586 133.571L328.96 122.589C323.348 122.909 317.827 122.655 313.238 121.491L310.534 132.153ZM311.281 132.312C311.47 132.318 311.659 132.321 311.846 132.322L311.926 121.322C311.811 121.322 311.696 121.32 311.58 121.316L311.281 132.312ZM264.801 142.249C283.442 145.773 295.994 144.986 304.2 141.882C312.529 138.73 316.889 132.85 316.93 126.853L305.931 126.776C305.929 126.989 305.676 129.562 300.307 131.593C294.816 133.671 284.585 134.795 266.844 131.441L264.801 142.249ZM251.221 133.673L262.759 141.412L268.887 132.277L257.349 124.538L251.221 133.673ZM264.659 87.3573C266.039 96.0187 267.238 103.982 265.889 110.551C265.248 113.673 264.059 116.265 262.147 118.38C260.236 120.493 257.315 122.449 252.699 123.839L255.871 134.372C262.037 132.515 266.815 129.619 270.307 125.757C273.798 121.895 275.715 117.387 276.664 112.764C278.496 103.846 276.817 93.749 275.522 85.6263L264.659 87.3573ZM118.626 65.992C119.757 66.6326 120.753 67.9032 120.943 71.6762C121.138 75.5599 120.381 80.4736 119.417 86.5199L130.28 88.2509C131.184 82.5821 132.194 76.4025 131.929 71.1236C131.658 65.734 129.964 59.7727 124.048 56.421L118.626 65.992ZM81.7787 63.5313C99.2441 60.6941 108.698 59.4036 118.29 65.7857L124.383 56.6273C110.603 47.4594 96.5676 49.9847 80.0148 52.6737L81.7787 63.5313ZM5.24666 65.18C40.3901 70.2567 64.1191 66.4001 81.7787 63.5313L80.0148 52.6737C62.6831 55.4892 40.2805 59.1267 6.81936 54.293L5.24666 65.18ZM23.0054 71.1596C19.58 69.2859 16.3624 67.1059 14.1455 64.8685C11.8078 62.5093 11.4398 60.9833 11.5087 60.2533L0.557345 59.2197C0.028215 64.8257 3.17777 69.4279 6.33164 72.6109C9.60624 75.9157 13.8541 78.6919 17.7263 80.8101L23.0054 71.1596ZM17.4373 81.0008C18.0304 81.1267 18.6546 81.254 19.3071 81.382L21.4246 70.5877C20.824 70.4699 20.255 70.3538 19.7198 70.2403L17.4373 81.0008ZM23.3659 77.1472C22.7929 79.8485 20.1386 81.5738 17.4373 81.0008L19.7198 70.2402C16.4782 69.5526 13.293 71.6231 12.6054 74.8646L23.3659 77.1472ZM19.5123 71.2185C22.2136 71.7915 23.9389 74.4459 23.3659 77.1472L12.6054 74.8646C11.9178 78.1062 13.9881 81.2915 17.2298 81.9791L19.5123 71.2185ZM24.1047 72.1011C22.3933 71.8015 20.8503 71.5023 19.5123 71.2185L17.2298 81.9791C18.7083 82.2927 20.3805 82.6164 22.2075 82.9363L24.1047 72.1011ZM38.5693 90.1524C36.4448 89.5467 34.2513 87.651 32.257 84.5983C30.3199 81.6331 29.0419 78.2825 28.4765 76.1245L17.8357 78.9129C18.6495 82.0186 20.3596 86.4992 23.0479 90.6144C25.6791 94.6421 29.7486 99.076 35.5536 100.731L38.5693 90.1524ZM13.8577 97.7054C19.313 98.8626 27.5544 100.184 36.6142 100.923L37.5087 89.9599C28.9185 89.259 21.1406 88.0055 16.1403 86.9448L13.8577 97.7054ZM19.7864 93.8517C19.2134 96.5531 16.559 98.2783 13.8578 97.7054L16.1402 86.9448C12.8987 86.2573 9.71344 88.3276 9.02583 91.5692L19.7864 93.8517ZM15.9328 87.9231C18.6341 88.4961 20.3594 91.1504 19.7864 93.8517L9.02583 91.5692C8.33823 94.8108 10.4086 97.996 13.6501 98.6836L15.9328 87.9231ZM39.0889 91.0844C29.8053 90.4139 21.2975 89.061 15.9327 87.923L13.6502 98.6836C19.4911 99.9226 28.4966 101.348 38.2965 102.056L39.0889 91.0844ZM61.53 107.98C51.9571 107.692 45.907 99.6332 43.7766 94.4717L33.6087 98.6684C36.4004 105.432 45.1871 118.494 61.1998 118.975L61.53 107.98ZM66.4184 111.3C66.3991 111.26 66.3807 111.22 66.3632 111.182L56.3667 115.772C56.404 115.854 56.442 115.935 56.4808 116.017L66.4184 111.3ZM52.2853 119.148C55.4197 119.327 58.6388 119.352 61.8049 119.147L61.0942 108.17C58.4536 108.341 55.6891 108.324 52.9116 108.166L52.2853 119.148ZM30.2352 115.522C35.3029 116.96 43.5868 118.652 52.2853 119.148L52.9116 108.166C45.115 107.721 37.6303 106.186 33.2373 104.94L30.2352 115.522ZM36.41 112.076C35.6564 114.733 32.8918 116.276 30.2352 115.522L33.2373 104.94C30.0494 104.035 26.7319 105.887 25.8275 109.075L36.41 112.076ZM32.9644 105.902C35.6209 106.655 37.1636 109.42 36.41 112.077L25.8276 109.074C24.9232 112.262 26.7745 115.58 29.9623 116.484L32.9644 105.902ZM52.8547 109.164C44.9761 108.715 37.4187 107.165 32.9643 105.902L29.9623 116.484C35.0913 117.939 43.4479 119.646 52.2283 120.146L52.8547 109.164ZM61.5507 109.141C58.7344 109.344 55.7906 109.332 52.8547 109.164L52.2283 120.146C55.5348 120.335 58.9619 120.356 62.3413 120.113L61.5507 109.141ZM80.2767 122.012C73.4988 120.931 68.7716 115.633 66.7679 111.981L57.1241 117.273C60.0198 122.55 67.134 131.055 78.5442 132.875L80.2767 122.012ZM65.4103 133.466C70.3048 133.745 75.4461 133.653 80.2849 132.873L78.5359 122.013C74.7121 122.629 70.4097 122.733 66.0366 122.484L65.4103 133.466ZM43.3603 129.84C48.4279 131.278 56.7118 132.97 65.4103 133.466L66.0366 122.484C58.2401 122.039 50.7553 120.504 46.3623 119.258L43.3603 129.84ZM49.535 126.395C48.7814 129.051 46.0168 130.594 43.3602 129.84L46.3623 119.258C43.1744 118.354 39.8569 120.205 38.9525 123.393L49.535 126.395ZM46.0894 120.22C48.7459 120.974 50.2887 123.738 49.535 126.395L38.9526 123.393C38.0482 126.581 39.8995 129.898 43.0873 130.802L46.0894 120.22ZM65.9797 123.482C58.1011 123.033 50.5437 121.484 46.0894 120.22L43.0873 130.802C48.2163 132.257 56.5729 133.964 65.3534 134.464L65.9797 123.482ZM81.7013 122.385C77.113 123.549 71.5914 123.802 65.9797 123.482L65.3533 134.464C71.5594 134.818 78.316 134.592 84.4058 133.047L81.7013 122.385ZM83.3597 122.21C83.2437 122.213 83.1282 122.215 83.0133 122.216L83.0938 133.216C83.2811 133.214 83.4692 133.211 83.6583 133.206L83.3597 122.21ZM128.095 132.334C110.354 135.688 100.124 134.565 94.6322 132.487C89.2639 130.456 89.0103 127.882 89.0089 127.67L78.0091 127.747C78.0511 133.743 82.4105 139.624 90.7398 142.775C98.9456 145.88 111.498 146.667 130.139 143.143L128.095 132.334ZM137.59 125.431L126.053 133.171L132.181 142.306L143.718 134.566L137.59 125.431ZM119.417 86.5199C118.123 94.6426 116.444 104.74 118.276 113.658C119.225 118.28 121.141 122.788 124.632 126.65C128.124 130.513 132.903 133.409 139.068 135.265L142.24 124.733C137.625 123.343 134.703 121.387 132.792 119.273C130.881 117.159 129.692 114.566 129.051 111.445C127.701 104.876 128.9 96.9123 130.28 88.2509L119.417 86.5199ZM205.197 128.93C200.502 116.275 188.295 106.507 175.743 104.734C169.303 103.824 162.554 105.004 156.812 109.256C151.093 113.492 146.969 120.329 144.859 129.626L155.586 132.06C157.276 124.614 160.277 120.378 163.358 118.096C166.415 115.832 170.142 115.052 174.204 115.625C182.656 116.819 191.559 123.794 194.884 132.757L205.197 128.93ZM250.715 130.843C250.715 115.339 240.341 105.204 227.577 104.373C214.957 103.551 201.748 111.815 194.936 128.795L205.145 132.891C210.577 119.353 219.956 114.9 226.862 115.35C233.623 115.79 239.715 120.916 239.715 130.843H250.715ZM203.263 194.219C219.064 182.797 230.918 173.413 238.767 163.776C246.854 153.845 250.715 143.625 250.715 130.843H239.715C239.715 140.95 236.82 148.746 230.237 156.829C223.415 165.207 212.682 173.837 196.819 185.304L203.263 194.219ZM144.859 129.626C142.262 141.071 148.324 152.237 157.546 162.408C166.945 172.772 180.838 183.456 196.968 194.323L203.114 185.2C187.157 174.45 174.17 164.364 165.695 155.018C157.044 145.479 154.24 137.994 155.586 132.06L144.859 129.626Z" fill="#A09F9F"/>
</svg>
